<?xml version="1.0" standalone="no"?>
<!DOCTYPE svg PUBLIC "-//W3C//DTD SVG 20010904//EN"
 "http://www.w3.org/TR/2001/REC-SVG-20010904/DTD/svg10.dtd">
<svg version="1.0" xmlns="http://www.w3.org/2000/svg"
 width="86.000000pt" height="86.000000pt" viewBox="0 0 86.000000 86.000000"
 preserveAspectRatio="xMidYMid meet">
<metadata>
Created by potrace 1.14, written by Peter Selinger 2001-2017
</metadata>
<g transform="translate(0.000000,86.000000) scale(0.100000,-0.100000)"
fill="#000000" stroke="none">
<path d="M409 808 c-2 -36 -11 -74 -20 -82 -5 -6 -9 -24 -9 -41 0 -43 -23 -71
-76 -91 -26 -10 -40 -20 -34 -24 8 -5 6 -9 -5 -14 -11 -4 -15 -12 -11 -22 4
-9 1 -24 -6 -32 -11 -13 -10 -15 6 -9 18 7 18 6 1 -19 -13 -20 -14 -28 -5 -34
16 -10 4 -17 -60 -36 -27 -8 -50 -20 -50 -26 0 -5 9 -8 19 -5 14 3 18 1 14 -9
-3 -8 -8 -14 -12 -14 -13 0 -34 -54 -22 -58 5 -2 7 -11 4 -20 -4 -11 6 -6 27
13 26 24 32 26 26 10 -4 -11 -10 -33 -13 -49 -5 -23 -3 -27 8 -21 9 5 8 1 -3
-10 -12 -13 -14 -23 -7 -36 5 -11 13 -27 18 -37 11 -24 -4 -62 -37 -89 l-27
-23 25 9 c40 13 64 55 65 111 0 27 4 45 9 40 4 -4 6 -31 5 -59 -2 -28 -1 -51
4 -51 4 0 7 6 8 13 0 6 3 38 5 70 2 32 8 67 14 77 7 14 7 20 0 20 -5 0 -10 -4
-10 -10 0 -5 -3 -10 -7 -10 -8 0 -13 33 -13 88 0 57 3 69 22 81 18 11 19 10
13 -8 -4 -13 -2 -21 5 -21 7 0 10 -7 7 -15 -4 -8 -2 -17 3 -20 4 -3 11 14 15
37 3 24 9 51 12 62 4 14 2 16 -8 10 -12 -6 -12 -5 0 9 10 13 11 20 2 31 -9 11
-9 16 0 21 8 6 7 10 -2 16 -11 7 -10 9 4 9 20 0 23 16 5 23 -7 3 -4 6 6 6 11
1 16 4 13 7 -3 4 5 16 19 27 18 14 28 17 36 9 8 -8 3 -25 -21 -63 -21 -34 -26
-49 -16 -45 13 4 14 2 5 -14 -5 -10 -10 -26 -10 -36 0 -13 3 -14 14 -5 20 17
59 -34 51 -67 -3 -14 -2 -21 4 -18 5 4 18 -18 27 -49 10 -30 21 -55 26 -55 5
0 13 -10 19 -22 7 -17 8 -6 5 42 -5 65 7 100 33 100 6 0 11 3 12 8 3 35 19 71
19 43 0 -6 11 -28 24 -49 13 -20 27 -48 31 -62 6 -25 6 -25 -11 -5 -16 19 -16
19 -9 -10 5 -16 9 -39 10 -51 1 -11 4 -25 8 -31 4 -7 3 -14 -3 -18 -5 -3 -10
-16 -10 -27 0 -12 -19 -39 -42 -61 l-43 -40 30 6 30 5 -29 -24 c-15 -14 -26
-27 -23 -30 7 -7 68 26 84 46 28 35 54 102 46 123 -10 32 -10 117 1 117 6 0
-4 15 -20 33 -49 52 -56 65 -49 87 3 11 14 20 24 20 27 0 44 25 36 52 -4 13
-4 20 0 16 4 -4 13 -2 20 5 7 7 25 21 39 31 14 10 26 22 26 26 0 10 -85 50
-104 50 -8 0 -27 12 -42 27 -25 25 -26 30 -17 65 13 47 1 49 -30 3 -13 -19
-27 -32 -30 -29 -4 4 -13 1 -22 -6 -12 -10 -15 -10 -15 1 0 21 -43 119 -52
119 -4 0 -8 -6 -9 -12z m33 -95 c-2 -7 -8 -13 -12 -13 -5 0 -10 -8 -12 -17 -3
-15 -5 -14 -10 5 -4 13 -2 20 4 16 5 -3 9 0 7 7 -1 8 -1 28 0 44 l2 30 13 -30
c7 -16 11 -36 8 -42z m38 -68 c5 -14 14 -25 19 -25 5 0 0 -16 -10 -36 -20 -41
-18 -54 9 -48 9 3 44 -7 77 -22 41 -19 54 -29 42 -32 -10 -2 -27 4 -37 13 -20
18 -61 17 -67 -1 -2 -7 5 -10 20 -7 14 3 28 0 31 -6 4 -6 0 -11 -9 -11 -8 0
-23 -15 -32 -34 -10 -21 -21 -32 -29 -29 -9 3 -14 -2 -14 -17 0 -12 -4 -18
-10 -15 -6 4 -8 11 -5 16 4 5 2 9 -4 9 -5 0 -11 -10 -13 -22 -3 -19 -5 -17 -9
9 -3 18 -2 30 3 27 4 -3 11 3 15 13 3 10 13 26 21 36 14 16 14 17 -1 11 -10
-3 -17 -1 -17 6 0 21 -20 -1 -21 -23 -1 -20 -2 -19 -12 6 -6 15 -14 27 -19 27
-4 0 -4 7 -1 17 5 12 3 14 -8 8 -12 -7 -12 -6 -1 7 7 9 9 18 3 20 -5 1 -1 19
9 38 11 19 19 28 20 19 0 -9 7 -22 15 -29 14 -11 14 -10 6 13 -8 21 -7 30 7
43 12 13 13 19 4 22 -15 5 -16 22 -2 22 6 0 15 -11 20 -25z m40 5 c0 -5 -4
-10 -9 -10 -6 0 -13 5 -16 10 -3 6 1 10 9 10 9 0 16 -4 16 -10z m106 -26 c22
-6 44 -31 44 -49 0 -12 -64 7 -104 30 -37 22 -37 24 -15 28 13 2 30 3 37 1 8
-2 25 -7 38 -10z m-396 -248 c0 -2 -12 -12 -27 -21 l-28 -18 19 21 c17 20 36
29 36 18z"/>
</g>
</svg>
